<?xml version="1.0" encoding="utf-8"?>
<svg version="1.1" id="Layer_1" xmlns="http://www.w3.org/2000/svg" xmlns:xlink="http://www.w3.org/1999/xlink" x="0px" y="0px"
	 viewBox="0 0 720 720" style="enable-background:new 0 0 720 720;" xml:space="preserve">
<style type="text/css">
	.st0{fill:#FFFFFF;}
</style>
<g>
	<path class="st0" d="M598.19,563.95c-3.7,4.12-7.51,8.16-11.45,12.11c-28.07,28.07-60.74,50.1-97.13,65.49
		c-37.66,15.93-77.68,24.01-118.93,24.01s-81.27-8.08-118.93-24.01c-36.38-15.39-69.06-37.42-97.13-65.49
		c-28.07-28.07-50.1-60.74-65.49-97.13c-5.4-12.76-9.89-25.78-13.47-39.04H53.19c-0.36,0-0.72-0.01-1.08-0.03
		c4.08,16.31,9.43,32.31,16.04,47.94c16.54,39.1,40.21,74.21,70.36,104.36c30.15,30.15,65.26,53.82,104.36,70.36
		c40.49,17.12,83.49,25.81,127.81,25.81s87.32-8.68,127.81-25.81c39.1-16.54,74.21-40.21,104.36-70.36
		c5.37-5.37,10.53-10.91,15.48-16.59c-4.44-1.37-8.49-3.15-12.08-5.33C603.23,568.42,600.54,566.3,598.19,563.95z"/>
	<path class="st0" d="M134,166.73c6.46-7.89,13.34-15.5,20.62-22.79c28.07-28.07,60.74-50.1,97.13-65.49
		c37.66-15.93,77.68-24.01,118.93-24.01s81.27,8.08,118.93,24.01c36.38,15.39,69.06,37.42,97.13,65.49
		c28.07,28.07,50.1,60.74,65.49,97.13c15.93,37.66,24.01,77.68,24.01,118.93c0,15.26-1.11,30.35-3.31,45.21
		c0.36-0.07,0.71-0.15,1.07-0.2c7.97-1.14,13.43-1.62,18.27-1.62c1.33,0,2.63,0.05,3.9,0.14c1.89-14.33,2.85-28.86,2.85-43.52
		c0-44.32-8.68-87.32-25.81-127.81c-16.54-39.1-40.21-74.21-70.36-104.36c-30.15-30.15-65.26-53.82-104.36-70.36
		C458,40.35,415,31.67,370.68,31.67s-87.32,8.68-127.81,25.81c-39.1,16.54-74.21,40.21-104.36,70.36
		c-9.56,9.56-18.47,19.63-26.71,30.16c7.37,2.6,14.43,5.51,21.16,8.3L134,166.73z"/>
	<path class="st0" d="M61.64,395.51c1.68-2.91,3.12-7.14,4.37-12.04c-0.59-7.77-0.88-15.6-0.88-23.47c0-25.57,3.11-50.66,9.26-75.02
		c-5.84,1.62-12.01,2.48-18.34,2.48c-1.89,0-3.77-0.08-5.63-0.22c-5.37,23.7-8.07,48.03-8.07,72.76c0,13.96,0.86,27.79,2.58,41.45
		c2.59-1.32,5.51-2.06,8.58-2.06C59.4,399.39,60.19,398.01,61.64,395.51z"/>
	<g>
		<g>
			<path class="st0" d="M184.03,298.65c33.98,0.64,93.37,9.85,93.37,62.88c0,40.01-37.79,75.26-105.75,75.26
				c-15.56,0-33.03-1.91-51.76-6.03v-2.54c6.67,0.95,13.02,1.59,19.05,1.59c58.75,0,74.63-47.32,74.63-77.49
				c0-22.86-10.8-52.72-42.55-52.72l0.32-2.54c38.74,0,50.81-28.9,50.81-64.47c0-20.64-8.89-30.17-24.14-30.17
				c-12.7,0-22.23,9.53-27.63,43.83l-27.31,174.66H53.19l0.32-2.54c23.82,0,29.85-17.47,35.57-54.62l16.51-108.29
				c6.35-41.92,52.72-50.81,79.71-52.08v-0.32c-41.92,0-76.22-31.12-115.91-31.12c-45.1,0-42.24,44.78-12.39,44.78
				c8.57,0,17.47-4.13,22.23-12.7c13.34,6.35,17.78,17.15,17.78,27.31c0,24.77-20.32,37.16-40.97,37.16
				C33.5,268.48,10,254.19,10,224.97c0-32.71,24.45-56.21,59.39-56.21c20.32,0,39.06,7.94,57.48,15.56
				c19.05,7.94,37.79,15.56,58.43,15.56c6.99,0,10.48-2.86,10.48-7.3c0-4.45-3.18-6.67-6.67-6.67c-2.22,0-3.81,0.95-5.4,2.54
				c-3.81-2.54-5.08-6.67-5.08-9.84c0-9.85,8.89-15.24,17.47-15.24c8.57,0,16.83,5.08,16.83,15.56c0,11.03-7.3,16.51-16.29,20.94
				c5.98-0.83,16-1.57,21.06-1.57c35.25,0,65.1,13.66,65.1,43.51c0,47-57.48,54.62-98.77,56.21L184.03,298.65z"/>
		</g>
		<g>
			<path class="st0" d="M291.15,303.38l9.67-54.27c1.25-6.99-1.61-7.88-7.52-6.63v-0.72c6.27-3.58,18.81-6.99,27.41-6.99
				c10.21,0,14.69,3.94,11.82,15.94l-9.85,40.48h0.72c12-45.5,25.08-57.5,42.63-57.5c16.3,0,22.57,11.46,22.57,21.67
				c0,13.61-9.31,23.64-22.21,23.64c-10.21,0-17.55-6.27-17.38-16.66c6.63-0.9,13.08-5.91,13.08-13.26c0-5.91-2.87-8.6-6.99-8.6
				c-11.11,0-22.03,20.24-29.74,51.23c-3.05,12.36-8.06,34.57-1.97,37.62v0.72c-6.27,0.9-11.28,1.43-15.58,1.43
				C293.66,331.51,287.21,325.42,291.15,303.38z"/>
		</g>
		<g>
			<path class="st0" d="M387.33,292.82c0-31.17,24-58.4,58.22-58.4c14.69,0.18,35.11,3.76,35.11,20.42
				c0,13.26-17.91,26.15-58.22,18.81l0.36-1.61c21.14,1.61,31.35-13.61,31.35-24.72c0-6.45-2.51-11.11-8.6-11.11
				c-15.05,0-25.08,24-25.08,43.35c0,19.88,9.67,29.91,24.18,30.27c9.49,0.18,22.21-2.69,30.27-13.79l1.25,0.54
				c-12.18,22.03-31.53,34.93-52.48,34.93S387.33,316.64,387.33,292.82z"/>
		</g>
		<g>
			<path class="st0" d="M614.64,234.42c10.75,0,20.24,8.42,20.24,26.87c0,36-34.21,70.22-66.28,70.22
				c-16.83,0-23.14-9.46-21.38-25.09c-7.99,16.06-21.78,25.09-35.58,25.09c-15.76,0-26.15-8.42-22.93-29.2l8.24-52.84
				c1.08-6.99-1.61-7.88-7.52-6.63v-0.72c6.27-3.58,18.81-6.99,27.41-6.99c10.21,0,14.51,3.94,12.54,15.94l-8.24,49.26
				c-1.79,10.93-4.12,24.36,4.66,24.36c9.14,0,18.99-14.2,21.73-21.68l10.15-65.73c10.75,0.36,21.32,0,32.06-1.43l-10.57,64.48
				c-2.69,16.84-2.51,24.36,6.09,24.36c18.81,0,46.04-31.71,46.04-53.38c0-8.06-4.12-11.64-10.21-11.64
				c-5.02,0-9.49,2.33-11.46,7.52c-8.42-1.08-13.43-8.24-13.43-16.12C596.19,241.59,604.61,234.42,614.64,234.42L614.64,234.42z"/>
		</g>
		<g>
			<path class="st0" d="M550.56,365.18l-4.86,73.14h-2.43c2.43-46.73-23.37-70.71-54.63-70.71c-28.22,0-35.51,16.39-39.75,43.09
				l-8.96,57.05c39.15-0.12,59.05-16.2,65.7-47.34h2.43l-20.94,98.02h-2.73c6.33-29.26-6.83-48.02-44.85-48.24l-7.05,44.91
				c-12.14,77.39-94.08,89.83-127.76,89.83c-41.27,0-71.01-20.94-71.01-60.7c0-34.29,28.53-58.27,62.52-58.27
				c28.22,0,59.78,17.91,59.78,48.25c0,22.15-16.69,37.63-38.54,37.63c-20.94,0-33.08-17.3-27.62-35.81
				c18.21-0.3,28.22-14.26,28.22-27.01c0-10.32-6.07-20.03-23.97-20.03c-28.83,0-47.95,22.76-47.95,54.62
				c0,34.29,19.42,58.27,58.57,58.27c32.47,0,58.27-26.4,66.16-78.9l15.78-103.48c6.07-40.06,50.38-48.56,76.17-49.77v-0.3
				c-40.06,0-72.83-29.74-110.77-29.74c-43.09,0-40.36,42.79-11.84,42.79c8.19,0,16.69-3.95,21.24-12.14
				c12.75,6.07,16.99,16.39,16.99,26.1c0,23.67-19.42,35.51-39.15,35.51c-21.55,0-44-13.66-44-41.58
				c0-31.26,23.37-53.71,56.75-53.71c19.42,0,37.33,7.59,54.93,14.87c18.21,7.59,36.11,14.87,55.84,14.87
				c6.68,0,10.01-2.73,10.01-6.98c0-4.25-3.04-6.37-6.37-6.37c-2.12,0-3.64,0.91-5.16,2.43c-3.64-2.43-4.86-6.37-4.86-9.41
				c0-9.41,8.5-14.57,16.69-14.57c8.19,0,16.08,4.86,16.08,14.87c0,10.34-6.69,13.21-14.85,18.81L550.56,365.18z"/>
		</g>
		<g>
			<path class="st0" d="M560.43,490.43l16.3-99.59c1.08-6.99-1.61-7.88-7.52-6.63v-0.72c6.27-3.58,18.81-6.99,27.41-6.99
				c10.21,0,13.97,3.76,11.82,15.94l-15.05,86.7c-3.94,22.57-3.58,35.11,4.3,38.15v0.72c-4.66,0.9-8.96,1.25-13.26,1.25
				C569.21,519.27,556.67,513.18,560.43,490.43z"/>
		</g>
		<g>
			<path class="st0" d="M606.29,537.9c0-8.96,6.45-16.3,16.3-16.3c8.24,0,15.4,6.09,14.87,16.12c-4.66,0.72-8.96,4.84-8.96,10.03
				c0,4.66,3.22,10.39,13.79,10.39c16.84,0,18.81-15.4,20.96-25.79l14.15-69.68h-0.72c-12,46.03-27.94,56.78-44.06,56.78
				c-22.39,0-22.39-18.81-20.42-31.17l8.42-51.23c1.07-6.99-1.61-7.88-7.52-6.63v-0.72c6.27-3.58,18.81-6.99,27.41-6.99
				c8.42,0,12.36,2.51,12.36,10.39c0,8.06-10.21,59.47-10.57,68.43c-0.18,5.19,1.97,8.24,5.55,8.24c9.85,0,20.24-20.96,26.87-47.65
				c3.05-12.36,8.06-34.57,1.97-37.62v-0.72c6.27-0.9,11.29-1.43,15.58-1.43c14.15,0,20.42,6.09,16.66,28.12l-11.46,67.17
				c-4.48,26.33-23.64,42.27-55.17,42.27C620.44,559.93,606.29,551.52,606.29,537.9z"/>
		</g>
	</g>
</g>
</svg>
