<?xml version="1.0" encoding="utf-8"?>
<!-- Generator: Adobe Illustrator 27.7.0, SVG Export Plug-In . SVG Version: 6.00 Build 0)  -->
<svg version="1.1" id="Layer_1" xmlns="http://www.w3.org/2000/svg" xmlns:xlink="http://www.w3.org/1999/xlink" x="0px" y="0px"
	 viewBox="0 0 200 200" style="enable-background:new 0 0 200 200;" xml:space="preserve">
<style type="text/css">
	.st0{fill:#FFFFFF;}
</style>
<g>
	<path class="st0" d="M168.06,158.27c-1.06,1.18-2.15,2.33-3.27,3.46c-8.02,8.02-17.36,14.31-27.75,18.71
		c-10.76,4.55-22.19,6.86-33.98,6.86s-23.22-2.31-33.98-6.86c-10.4-4.4-19.73-10.69-27.75-18.71c-8.02-8.02-14.31-17.36-18.71-27.75
		c-1.54-3.64-2.82-7.37-3.85-11.15h-6.42c-0.1,0-0.21,0-0.31-0.01c1.17,4.66,2.69,9.23,4.58,13.7c4.73,11.17,11.49,21.2,20.1,29.82
		c8.61,8.61,18.65,15.38,29.82,20.1c11.57,4.89,23.85,7.37,36.52,7.37s24.95-2.48,36.52-7.37c11.17-4.72,21.2-11.49,29.82-20.1
		c1.53-1.53,3.01-3.12,4.42-4.74c-1.27-0.39-2.43-0.9-3.45-1.52C169.49,159.55,168.72,158.94,168.06,158.27z"/>
	<path class="st0" d="M35.43,44.78c1.85-2.26,3.81-4.43,5.89-6.51c8.02-8.02,17.36-14.31,27.75-18.71
		c10.76-4.55,22.19-6.86,33.98-6.86s23.22,2.31,33.98,6.86c10.4,4.4,19.73,10.69,27.75,18.71c8.02,8.02,14.31,17.36,18.71,27.75
		c4.55,10.76,6.86,22.19,6.86,33.98c0,4.36-0.32,8.67-0.94,12.92c0.1-0.02,0.2-0.04,0.31-0.06c2.28-0.33,3.84-0.46,5.22-0.46
		c0.38,0,0.75,0.02,1.11,0.04c0.54-4.1,0.81-8.24,0.81-12.43c0-12.66-2.48-24.95-7.37-36.52c-4.72-11.17-11.49-21.2-20.1-29.82
		c-8.61-8.61-18.65-15.38-29.82-20.1C128,8.67,115.71,6.19,103.05,6.19S78.1,8.67,66.54,13.56c-11.17,4.73-21.2,11.49-29.82,20.1
		c-2.73,2.73-5.28,5.61-7.63,8.62c2.11,0.74,4.12,1.58,6.04,2.37L35.43,44.78z"/>
	<path class="st0" d="M14.75,110.14c0.48-0.83,0.89-2.04,1.25-3.44c-0.17-2.22-0.25-4.46-0.25-6.71c0-7.31,0.89-14.48,2.65-21.43
		c-1.67,0.46-3.43,0.71-5.24,0.71c-0.54,0-1.08-0.02-1.61-0.06C10.01,85.98,9.24,92.93,9.24,100c0,3.99,0.25,7.94,0.74,11.84
		c0.74-0.38,1.57-0.59,2.45-0.59C14.11,111.25,14.34,110.86,14.75,110.14z"/>
	<g>
		<g>
			<path class="st0" d="M49.72,82.47c9.71,0.18,26.68,2.81,26.68,17.97c0,11.43-10.8,21.5-30.21,21.5c-4.45,0-9.44-0.54-14.79-1.72
				v-0.73c1.91,0.27,3.72,0.45,5.44,0.45c16.79,0,21.32-13.52,21.32-22.14c0-6.53-3.08-15.06-12.16-15.06l0.09-0.73
				c11.07,0,14.52-8.26,14.52-18.42c0-5.9-2.54-8.62-6.9-8.62c-3.63,0-6.35,2.72-7.89,12.52l-7.8,49.9H12.34l0.09-0.73
				c6.81,0,8.53-4.99,10.16-15.61l4.72-30.94c1.81-11.98,15.06-14.52,22.77-14.88v-0.09c-11.98,0-21.78-8.89-33.12-8.89
				c-12.88,0-12.07,12.79-3.54,12.79c2.45,0,4.99-1.18,6.35-3.63c3.81,1.81,5.08,4.9,5.08,7.8c0,7.08-5.81,10.62-11.7,10.62
				C6.71,73.85,0,69.77,0,61.42c0-9.35,6.99-16.06,16.97-16.06c5.81,0,11.16,2.27,16.42,4.45c5.44,2.27,10.8,4.45,16.7,4.45
				c2,0,2.99-0.82,2.99-2.09c0-1.27-0.91-1.91-1.91-1.91c-0.64,0-1.09,0.27-1.54,0.73c-1.09-0.73-1.45-1.91-1.45-2.81
				c0-2.81,2.54-4.36,4.99-4.36c2.45,0,4.81,1.45,4.81,4.45c0,3.15-2.09,4.72-4.66,5.98c1.71-0.24,4.57-0.45,6.02-0.45
				c10.07,0,18.6,3.9,18.6,12.43c0,13.43-16.42,15.61-28.22,16.06L49.72,82.47z"/>
		</g>
		<g>
			<path class="st0" d="M80.33,83.82l2.76-15.51c0.36-2-0.46-2.25-2.15-1.89v-0.2c1.79-1.02,5.37-2,7.83-2
				c2.92,0,4.2,1.13,3.38,4.55l-2.81,11.57h0.2c3.43-13,7.17-16.43,12.18-16.43c4.66,0,6.45,3.28,6.45,6.19
				c0,3.89-2.66,6.76-6.35,6.76c-2.92,0-5.02-1.79-4.96-4.76c1.89-0.26,3.74-1.69,3.74-3.79c0-1.69-0.82-2.46-2-2.46
				c-3.17,0-6.3,5.78-8.5,14.64c-0.87,3.53-2.3,9.88-0.56,10.75v0.2c-1.79,0.26-3.22,0.41-4.45,0.41
				C81.04,91.86,79.2,90.12,80.33,83.82z"/>
		</g>
		<g>
			<path class="st0" d="M107.81,80.8c0-8.91,6.86-16.68,16.63-16.68c4.2,0.05,10.03,1.07,10.03,5.83c0,3.79-5.12,7.47-16.63,5.37
				l0.1-0.46c6.04,0.46,8.96-3.89,8.96-7.06c0-1.84-0.72-3.17-2.46-3.17c-4.3,0-7.17,6.86-7.17,12.39c0,5.68,2.76,8.55,6.91,8.65
				c2.71,0.05,6.35-0.77,8.65-3.94l0.36,0.15c-3.48,6.29-9.01,9.98-15,9.98C112.21,91.86,107.81,87.61,107.81,80.8z"/>
		</g>
		<g>
			<path class="st0" d="M172.75,64.12c3.07,0,5.78,2.41,5.78,7.68c0,10.29-9.78,20.06-18.94,20.06c-4.81,0-6.61-2.7-6.11-7.17
				c-2.28,4.59-6.22,7.17-10.17,7.17c-4.5,0-7.47-2.41-6.55-8.34l2.35-15.1c0.31-2-0.46-2.25-2.15-1.89v-0.2
				c1.79-1.02,5.37-2,7.83-2c2.92,0,4.15,1.13,3.58,4.55l-2.35,14.07c-0.51,3.12-1.18,6.96,1.33,6.96c2.61,0,5.43-4.06,6.21-6.19
				l2.9-18.78c3.07,0.1,6.09,0,9.16-0.41l-3.02,18.42c-0.77,4.81-0.72,6.96,1.74,6.96c5.37,0,13.15-9.06,13.15-15.25
				c0-2.3-1.18-3.33-2.92-3.33c-1.43,0-2.71,0.67-3.28,2.15c-2.41-0.31-3.84-2.35-3.84-4.61C167.48,66.17,169.89,64.12,172.75,64.12
				L172.75,64.12z"/>
		</g>
		<g>
			<path class="st0" d="M154.44,101.48l-1.39,20.9h-0.69c0.69-13.35-6.68-20.2-15.61-20.2c-8.06,0-10.14,4.68-11.36,12.31
				l-2.56,16.3c11.19-0.03,16.87-4.63,18.77-13.53h0.69l-5.98,28.01h-0.78c1.81-8.36-1.95-13.72-12.81-13.78l-2.01,12.83
				c-3.47,22.11-26.88,25.67-36.5,25.67c-11.79,0-20.29-5.98-20.29-17.34c0-9.8,8.15-16.65,17.86-16.65
				c8.06,0,17.08,5.12,17.08,13.79c0,6.33-4.77,10.75-11.01,10.75c-5.98,0-9.45-4.94-7.89-10.23c5.2-0.09,8.06-4.08,8.06-7.72
				c0-2.95-1.73-5.72-6.85-5.72c-8.24,0-13.7,6.5-13.7,15.61c0,9.8,5.55,16.65,16.73,16.65c9.28,0,16.65-7.54,18.9-22.54l4.51-29.57
				c1.73-11.45,14.39-13.87,21.76-14.22v-0.09c-11.45,0-20.81-8.5-31.65-8.5c-12.31,0-11.53,12.23-3.38,12.23
				c2.34,0,4.77-1.13,6.07-3.47c3.64,1.73,4.86,4.68,4.86,7.46c0,6.76-5.55,10.14-11.19,10.14c-6.16,0-12.57-3.9-12.57-11.88
				c0-8.93,6.68-15.35,16.21-15.35c5.55,0,10.66,2.17,15.69,4.25c5.2,2.17,10.32,4.25,15.95,4.25c1.91,0,2.86-0.78,2.86-1.99
				c0-1.21-0.87-1.82-1.82-1.82c-0.61,0-1.04,0.26-1.47,0.69c-1.04-0.69-1.39-1.82-1.39-2.69c0-2.69,2.43-4.16,4.77-4.16
				c2.34,0,4.6,1.39,4.6,4.25c0,2.95-1.91,3.78-4.24,5.37L154.44,101.48z"/>
		</g>
		<g>
			<path class="st0" d="M157.27,137.27l4.66-28.46c0.31-2-0.46-2.25-2.15-1.89v-0.2c1.79-1.02,5.37-2,7.83-2
				c2.92,0,3.99,1.07,3.38,4.55l-4.3,24.77c-1.13,6.45-1.02,10.03,1.23,10.9v0.2c-1.33,0.26-2.56,0.36-3.79,0.36
				C159.77,145.51,156.19,143.77,157.27,137.27z"/>
		</g>
		<g>
			<path class="st0" d="M170.37,150.83c0-2.56,1.84-4.66,4.66-4.66c2.35,0,4.4,1.74,4.25,4.61c-1.33,0.2-2.56,1.38-2.56,2.87
				c0,1.33,0.92,2.97,3.94,2.97c4.81,0,5.37-4.4,5.99-7.37l4.04-19.91h-0.2c-3.43,13.15-7.98,16.22-12.59,16.22
				c-6.4,0-6.4-5.37-5.83-8.91l2.41-14.64c0.31-2-0.46-2.25-2.15-1.89v-0.2c1.79-1.02,5.37-2,7.83-2c2.41,0,3.53,0.72,3.53,2.97
				c0,2.3-2.92,16.99-3.02,19.55c-0.05,1.48,0.56,2.35,1.59,2.35c2.81,0,5.78-5.99,7.68-13.61c0.87-3.53,2.3-9.88,0.56-10.75v-0.2
				c1.79-0.26,3.22-0.41,4.45-0.41c4.04,0,5.83,1.74,4.76,8.04l-3.28,19.19c-1.28,7.52-6.76,12.08-15.76,12.08
				C174.41,157.12,170.37,154.72,170.37,150.83z"/>
		</g>
	</g>
</g>
</svg>
